<?xml version="1.0" encoding="UTF-8"?> <svg xmlns="http://www.w3.org/2000/svg" viewBox="0 0 1084.98 253.83"><defs><style>.cls-1{fill:#fff;}</style></defs><g id="Capa_2" data-name="Capa 2"><g id="Capa_1-2" data-name="Capa 1"><path class="cls-1" d="M320.86,249.35c10.77,0,21.6.13,32.32-1.08,9.54-1.07,19.14-3.2,27.5-8.11a44.82,44.82,0,0,0,10.84-8.93c3.81-4.34,6.49-9.29,9.11-14.39A339.52,339.52,0,0,0,417,179.9a311.1,311.1,0,0,0,16.42-67.64c2.9-22.05,3.83-44.29,4.81-66.49.12-2.74,1.12-7.74-2-9.49-2.4-1.36-4.89.57-6.44,2.3a45.39,45.39,0,0,0-6.12,9.47,157.4,157.4,0,0,0-7.47,17.1C409.11,83.87,404.13,103.39,400,123c-2.71,12.78-5.05,25.63-6.88,38.57-1.79,12.66-3.24,25.38-4.64,38.09-.6,5.42-1.27,10.83-1.91,16.24a57.42,57.42,0,0,0,0,15,28,28,0,0,0,5.05,13.07,21.24,21.24,0,0,0,5.49,5.12,19.75,19.75,0,0,0,7.93,2.71c11,1.61,21.25-3.81,28.2-12.12,3.61-4.31,6.81-9.35,8.12-14.86,1.66-7,2.13-14.17,2.65-21.31.5-6.9,1.12-13.77,3-20.46l-4.91-.66c0,7.85-1.17,15.61-2,23.4a90.53,90.53,0,0,0,.09,22.79A27.84,27.84,0,0,0,446.75,243a25.84,25.84,0,0,0,12.09,7.48A32.08,32.08,0,0,0,488.53,244a37.4,37.4,0,0,0,9.35-13.72,56.16,56.16,0,0,0,2.66-8c.7-2.76,1-5.57,1.64-8.35,1.36-6.39,3.28-12.64,4.2-19.12.95-6.75,1.05-14-2.5-20.07a2.52,2.52,0,0,0-4.66,1.26c0,14.54-2.45,29-2.1,43.55.22,9.53,2.81,20.19,10,26.93a22.92,22.92,0,0,0,15.75,6.06c3.22,0,3.22-5,0-5a17.76,17.76,0,0,1-11.79-4.21A24.38,24.38,0,0,1,504.49,233a42.92,42.92,0,0,1-2.37-13.34,198.4,198.4,0,0,1,.86-20.25c.6-7.81,1.22-15.61,1.24-23.45l-4.66,1.26c2.7,4.62,2.69,10.2,2.1,15.37a131.68,131.68,0,0,1-3.42,16.17c-1.26,5.17-1.88,10.46-3.49,15.55a38.2,38.2,0,0,1-6.87,13.14,25,25,0,0,1-12.21,8,28.76,28.76,0,0,1-12.57.82,22.12,22.12,0,0,1-11-5,21.71,21.71,0,0,1-6.58-11.45c-1.75-7.43-1.26-15.38-.53-22.9.8-8.2,2.07-16.35,2.09-24.6a2.51,2.51,0,0,0-4.91-.67c-3.79,13.49-2.42,27.7-5.54,41.29a25.91,25.91,0,0,1-3,7.41,40.81,40.81,0,0,1-4.19,6,31.79,31.79,0,0,1-11.69,9,22.36,22.36,0,0,1-14,1.1,15.19,15.19,0,0,1-9.77-8c-4.26-8.07-3-17.81-1.93-26.48,1.42-11.63,2.53-23.29,4-34.92,1.52-12.34,3.31-24.63,5.58-36.86,4-21.34,8.84-42.61,15.68-63.23,1.22-3.67,2.5-7.31,3.88-10.92.59-1.55,1.19-3.09,1.82-4.63l.43-1c.08-.21.17-.41.25-.61-.19.46,0,0,.05-.1.31-.74.63-1.48,1-2.21a88.56,88.56,0,0,1,6.35-12.23c.43-.66.87-1.31,1.33-1.94l.3-.4c.12-.17-.44.53,0,0,.21-.25.42-.51.64-.76a13.63,13.63,0,0,1,1.08-1.07c.54-.52-.37.18,0,0a4.57,4.57,0,0,0,.47-.29c.51-.37-.67.22-.15.07s-.69,0-.23,0-.81-.19-.32,0c.25.08-.77-.37-.43-.18s-.49-.41-.33-.26c.41.38-.38-.56-.15-.22l.09.16c.21.39-.16-.7-.14-.33a2.79,2.79,0,0,0,.14.47c.24.79,0-.58,0,0,.08,3.32-.22,6.67-.36,10-.25,5.5-.5,11-.78,16.5-.55,10.61-1.24,21.22-2.28,31.79a325.61,325.61,0,0,1-12.43,64A303.29,303.29,0,0,1,404.62,197q-4.11,9.21-8.76,18.17c-2.43,4.7-4.92,9.3-8.52,13.22-12.84,14-33.06,15.49-51,15.85-5.17.1-10.35.09-15.52.09-3.22,0-3.23,5,0,5Z"></path><path class="cls-1" d="M362.32,107.91h-4.23a2.52,2.52,0,0,0-1.26,4.66,22.84,22.84,0,0,0,10.38,3.12c3.28.32,6.62.21,9.85.94,4,.89,8.26.47,12.33.36s8.28-.3,12.41-.53c8.36-.45,16.72-1.1,25.06-1.84q6.15-.56,12.31-1.15c2-.2,4.05-.52,6.06-.56,1.7,0,3.4,0,5.1,0,4.12,0,8.24-.22,12.34-.64q3.38-.34,6.74-.9c.63-.1,1.25-.21,1.88-.33l.72-.13c.05,0,.74-.14.34-.1.3,0,.61,0,.9,0,3.22,0,3.23-5,0-5h-.93c-3.22,0-3.23,5,0,5h.93c3.22,0,3.23-5,0-5-2.94,0-5.9.91-8.83,1.26-3.69.45-7.4.68-11.11.78-3.5.09-7-.07-10.49.28q-6,.58-12,1.15c-16.3,1.5-32.65,2.74-49,2.87a42.3,42.3,0,0,1-5.94-.75c-1.9-.26-3.81-.36-5.72-.47-3.77-.22-7.56-.57-10.81-2.66l-1.26,4.66h4.23c3.22,0,3.22-5,0-5Z"></path><path class="cls-1" d="M722.56,175.94a42.55,42.55,0,0,0-13.83,16.93A73.09,73.09,0,0,0,703,215.74c-.44,4.22-.64,8.47-.67,12.72a27.53,27.53,0,0,0,1.26,9.19,15.06,15.06,0,0,0,9.9,9.89c4.6,1.38,9.73.64,14.18-1a38.26,38.26,0,0,0,13.4-8.35,32.39,32.39,0,0,0,5-6.12,10.21,10.21,0,0,0,.85-1.47c0-.07.22-.51.07-.22s.26-.37.22-.32q.35-.43.66-.87c.69-.93,1.32-1.89,1.92-2.88a78.47,78.47,0,0,0,7.34-16.29,63.54,63.54,0,0,0,3.55-19.29c0-5.75-1.14-11.71-4.91-16.21a17.28,17.28,0,0,0-3.14-2.84l.89.89c-3.16-4.58-9-6.45-14.43-5.91a16.36,16.36,0,0,0-7.67,2.56,12,12,0,0,0-4.91,7.52A16.87,16.87,0,0,0,730.39,192a17.78,17.78,0,0,0,12.81,5.72c6.47-.15,12.26-4.45,16.91-8.53,6.54-5.73,12.08-12.58,17.29-19.5,5.83-7.77,11.19-15.88,16.3-24.14q6.79-11,13-22.37c3.12-5.73,6.23-11.49,8.8-17.49a145.55,145.55,0,0,0,10.64-40.38,119.35,119.35,0,0,0,.94-15.92A44.46,44.46,0,0,0,826,38.69c-.61-2.26-1.87-4.7-4.58-4.49a9.51,9.51,0,0,0-5.32,2.47c-3.62,3.06-6,7.7-8.07,11.89a169.46,169.46,0,0,0-7.92,19.89c-2.76,8.12-5.19,16.35-7.46,24.62-2.42,8.83-4.65,17.72-6.76,26.63q-3,12.66-5.68,25.4-2.26,10.67-4.32,21.35c-.89,4.66-1.77,9.33-2.54,14-1.19,7.17-2.76,14.26-4,21.41-1.15,6.35-2,12.76-2.55,19.19a50.76,50.76,0,0,0,.32,14c.89,4.81,3,9.58,7,12.5,5.12,3.68,12.58,2.91,18.1.68,6.1-2.46,11.31-6.63,15.94-11.24,2.29-2.27-1.25-5.81-3.53-3.54-5.45,5.42-12.43,11.18-20.46,11.59a15,15,0,0,1-5.42-.65,7.45,7.45,0,0,1-1.46-.72,6.13,6.13,0,0,1-1.41-1.12,14.11,14.11,0,0,1-3.5-6.71,30.22,30.22,0,0,1-1-8,84.49,84.49,0,0,1,.67-9.93c.72-7,1.84-13.88,3.24-20.75s2.57-13.85,3.82-20.79c1.39-7.74,2.91-15.46,4.5-23.17q3.23-15.69,6.89-31.29c2.61-11.08,5.4-22.12,8.52-33.06,2.78-9.75,5.78-19.47,9.48-28.92.39-1,.79-2,1.21-3l.3-.72c-.19.46,0,0,.09-.21.21-.5.43-1,.65-1.48q1.14-2.6,2.43-5.11c.75-1.46,1.55-2.89,2.43-4.28.39-.63.81-1.26,1.24-1.86l.57-.76c-.53.71.16-.19.32-.38.38-.45.77-.88,1.19-1.29l.56-.52.3-.25c.4-.37-.47.31-.1.08s.77-.5,1.18-.73c.65-.38-.35.06,0,0,.2,0,.41-.13.62-.19s.2,0,.29-.06c.38-.15-.72.07-.31,0a.72.72,0,0,1,.25,0c.5.12-.44-.09-.32-.06s-.69-.34-.38-.15c.07,0-.59-.53-.27-.2s-.27-.51-.19-.26a1.62,1.62,0,0,0,.21.36c.41.69-.09-.42.09.2.1.33.22.67.31,1a23.81,23.81,0,0,1,.49,2.49c.06.42,0-.46,0,.26,0,.23.05.46.08.69.06.6.11,1.19.15,1.79.09,1.29.14,2.57.16,3.85.05,3.11-.06,6.21-.27,9.3a143.11,143.11,0,0,1-3.56,23A129.45,129.45,0,0,1,809.48,107c-1.39,2.93-2.88,5.81-4.4,8.67q-7.16,13.55-15.19,26.61a291.27,291.27,0,0,1-20.26,29.41,120.56,120.56,0,0,1-10.76,11.94c-.86.82-1.73,1.61-2.62,2.38L755,187l-.65.52-.32.25-.05,0a36.84,36.84,0,0,1-5,3.21c-.37.2-.75.38-1.13.56s-.67.28-.15.07l-.67.26a15.08,15.08,0,0,1-2.38.69l-.5.09c-.59.13.56,0,0,0-.39,0-.78.07-1.17.07s-.67,0-1,0c-.58,0,0,0,0,0-.19-.05-.39-.07-.59-.11a14,14,0,0,1-8-4.76,11.48,11.48,0,0,1-2.34-8.06,12.57,12.57,0,0,1,1-4.1,6,6,0,0,1,3-2.85,13.4,13.4,0,0,1,8.38-1,11,11,0,0,1,3.94,1.58,6.51,6.51,0,0,1,1.28,1.12,3.35,3.35,0,0,1,.46.56,4.22,4.22,0,0,0,.89.9c.34.25,0,0,.18.12a13.92,13.92,0,0,1,1.32,1.22c.22.23.43.47.63.71s.12.14,0,.06a5.92,5.92,0,0,1,.35.48,14.85,14.85,0,0,1,.93,1.53c.15.28.29.57.43.86.21.45.09.18,0,.08.08.18.16.38.23.57,2,5.33,1.66,11.38.66,16.94a77.31,77.31,0,0,1-5.71,18.08,65,65,0,0,1-3.92,7.43c-.6,1-1.24,1.9-1.91,2.82-.37.51.14-.18-.13.17a6.79,6.79,0,0,0-.7,1.1c-.3.57-.63,1.13-1,1.67s-.65,1-1,1.42l-.28.38c.25-.33,0,0,0,0-.22.28-.45.55-.68.82a31.16,31.16,0,0,1-2.66,2.73,30.3,30.3,0,0,1-6,4.36,32.75,32.75,0,0,1-3.41,1.69l-.37.15-.87.33c-.61.22-1.23.42-1.85.59a25.56,25.56,0,0,1-3.45.75c.55-.08-.25,0-.4,0s-.49.05-.74.06c-.58,0-1.17,0-1.75,0l-.81,0c-.17,0-1-.11-.32,0-.52-.08-1-.18-1.54-.31a14.56,14.56,0,0,1-1.46-.46c-.42-.14.32.18-.19-.08-.25-.12-.51-.24-.76-.38a11.56,11.56,0,0,1-1.28-.82c.45.32-.1-.09-.24-.21l-.56-.53c-.19-.19-.36-.38-.54-.58-.43-.48,0,0-.24-.28a16.17,16.17,0,0,1-.9-1.42c-.14-.26-.27-.52-.39-.79s-.13-.27-.19-.41c.17.41,0,0,0,0-.24-.65-.45-1.3-.63-2a18.26,18.26,0,0,1-.6-4,93,93,0,0,1,.35-12.26c.6-7.63,1.95-15.41,5-22.47a37.82,37.82,0,0,1,12.39-15.92,2.58,2.58,0,0,0,.9-3.42,2.53,2.53,0,0,0-3.43-.9Z"></path><path class="cls-1" d="M808.09,237q7.53-7.14,14.75-14.59c6.64-6.87,13.1-13.94,19.06-21.41,5.4-6.78,10.75-13.94,14.06-22,2.14-5.23,3.42-12.32-1.56-16.43-8.67-7.15-20.6-1.66-28,4.53a58.2,58.2,0,0,0-12.25,14.64,52.64,52.64,0,0,0-6.89,16.87A41,41,0,0,0,807,210a67.57,67.57,0,0,0,2.74,13.81c2.71,8.58,7.56,17.79,16.39,21.26,5.12,2,11.11,1.11,16.34.07a46.64,46.64,0,0,0,16.91-6.95,52.13,52.13,0,0,0,12.8-12.43,88.37,88.37,0,0,0,9.8-17.93c1.43-3.32,3.11-6.41,4.86-9.57,2-3.7,3.87-7.57,5.79-11.35q5.79-11.31,10.92-22.93c5.18-11.71,10-23.59,14.12-35.7a282.45,282.45,0,0,0,8.75-29.48,298.24,298.24,0,0,0,5.69-34.65c.51-4.88.9-9.79.94-14.69a39.58,39.58,0,0,0-.86-10.31c-.6-2.29-1.84-4.37-4.34-4.8a7.47,7.47,0,0,0-5.5,1.26c-3.9,2.65-6.35,7.2-8.37,11.33a149.34,149.34,0,0,0-7.64,19.84c-2.61,8.18-4.87,16.47-7,24.8-2.25,9-4.3,18-6.22,27.07q-2.73,12.87-5.12,25.82-2,10.56-3.73,21.17c-.76,4.56-1.49,9.13-2.1,13.71,0,.2-.16,1.11-.08.61-.25,1.71-.51,3.41-.78,5.12-.55,3.57-1.1,7.15-1.56,10.73-.94,7.29-1.52,14.72-.59,22,.85,6.68,2.7,13.16,7.31,18.24a26.38,26.38,0,0,0,13.85,7.87,32.77,32.77,0,0,0,16.13-.65,35.62,35.62,0,0,0,14.29-8.41,101.36,101.36,0,0,0,13.47-15.27,176.8,176.8,0,0,0,11-17.73c3.35-6.06,6.48-12.24,9.65-18.4,2.84-5.55,5.88-11,8.45-16.68a257.5,257.5,0,0,0,13.51-39c3.64-13.47,6.56-27.13,8.85-40.89.52-3.12,1-6.25,1.45-9.37a12.78,12.78,0,0,0-.86-7.84A11.34,11.34,0,0,0,985,63.75a10.61,10.61,0,0,0-6.43,3,14,14,0,0,0-3.12,5.85q-1.53,4.72-3.05,9.46Q968,96,963.61,110q-5.21,16.8-10.1,33.71c-3.1,10.79-6.09,21.62-8.71,32.54-2.19,9.17-4,18.45-5.45,27.77-1.55,10.24-2.64,22.52,4.06,31.29,3.89,5.09,9.88,7.93,16,9.37a43.31,43.31,0,0,0,20.89-.48,49.06,49.06,0,0,0,17.61-8.77c3.85-3,6.89-6.95,10.26-10.48,8.09-8.45,16.46-16.63,24.25-25.36a160.32,160.32,0,0,0,10.65-13.05,52.5,52.5,0,0,0,6.8-12,2.51,2.51,0,0,0-1.74-3.07,2.55,2.55,0,0,0-3.08,1.74l-.24.63c-.17.43.09-.18-.11.25s-.43.94-.66,1.41c-.49,1-1,2-1.59,2.92-1.24,2.1-2.61,4.12-4,6.09a161.53,161.53,0,0,1-10.55,12.71c-7.53,8.33-15.56,16.19-23.32,24.3-3.21,3.36-6.11,7.16-9.75,10.06a43.6,43.6,0,0,1-16.18,7.89,37.49,37.49,0,0,1-19,.09,27.85,27.85,0,0,1-8.51-3.71,16.19,16.19,0,0,1-4.55-4.78c-2.44-4-3.21-8.62-3.31-13.29a81.83,81.83,0,0,1,1.41-15.29c1.52-8.93,3.26-17.8,5.4-26.6,2.58-10.57,5.48-21,8.49-31.51,3.15-11,6.45-21.86,9.82-32.75q4.23-13.65,8.6-27.24,1.53-4.74,3-9.49a13.63,13.63,0,0,1,1.71-4.11,5.58,5.58,0,0,1,1.86-1.51,1.68,1.68,0,0,1,.3-.15s-.36.13-.09,0l.63-.22.65-.16a3,3,0,0,1,.32-.06c-.23,0-.26,0,0,0a13.88,13.88,0,0,1,1.44,0l.33,0s-.41-.06-.11,0l.76.15a9.74,9.74,0,0,1,1.26.41c-.39-.16.07,0,.21.12s.45.25.67.39.55.39.38.25.35.32.42.38.31.32.46.49c0,0,.26.3.09.09s.12.15.14.19.25.38.36.58.31.6.23.43a4.06,4.06,0,0,0,.17.46c.08.27.15.55.21.82.1.44,0-.13,0,.33,0,.26,0,.52,0,.78a10.82,10.82,0,0,1-.16,1.74c-.2,1.45-.42,2.9-.64,4.35-.48,3.09-1,6.19-1.54,9.27-2.38,13.4-5.34,26.71-9,39.81a235.91,235.91,0,0,1-13.06,36.61c-2.59,5.52-5.58,10.85-8.36,16.28-3.05,6-6.1,11.91-9.36,17.75a170.12,170.12,0,0,1-10.76,17.16,99.3,99.3,0,0,1-12.68,14.11c-7.13,6.75-17.6,9.7-26.91,7a21,21,0,0,1-11.28-7.79c-3.69-5.18-4.69-12-4.93-18.2a114.07,114.07,0,0,1,1.56-21c.49-3.31,1-6.62,1.52-9.93.11-.73.21-1.46.3-2.2s0,.22,0,.14.05-.36.08-.54c.62-4.5,1.35-9,2.1-13.46Q891.06,155.33,893,145q2.32-12.48,5-24.89c1.85-8.77,3.82-17.5,6-26.19,2-8.16,4.21-16.28,6.72-24.29,1.11-3.52,2.28-7,3.56-10.48q.84-2.3,1.77-4.56c.08-.2.17-.4.25-.61s.26-.61.12-.29.09-.21.13-.29.16-.39.25-.58c.29-.67.59-1.33.89-2A54.48,54.48,0,0,1,921.32,44c.3-.47.61-.92.94-1.37l.21-.29c.27-.38-.19.24-.1.13l.47-.58A19,19,0,0,1,924.68,40c.45-.4-.49.32,0,0l.47-.31.47-.26c.47-.27.37,0-.06,0a3.36,3.36,0,0,0,.89-.27c.48-.16-.71,0-.13,0a3.69,3.69,0,0,0,.47,0c.54,0,0,.09-.17,0a1.71,1.71,0,0,0,.46.1c.55.11-.13-.07-.14-.07.24.13-.46-.51-.05,0,.28.33-.31-.59,0,0,.09.18.18.39.29.57s-.2-.62-.09-.19c0,.11.08.22.12.33q.14.44.24.87c.15.62.25,1.24.34,1.86-.11-.72,0,.29.06.54,0,.44.07.87.1,1.31.12,1.83.14,3.66.12,5.49-.07,4.75-.45,9.49-.94,14.21A288.35,288.35,0,0,1,921.69,97a275.06,275.06,0,0,1-8.37,28.54c-3.83,11.27-8.17,22.37-12.93,33.28-3.23,7.39-6.59,14.71-10.22,21.91-1.85,3.67-3.74,7.31-5.6,11-1.68,3.29-3.62,6.44-5.2,9.77s-2.83,6.6-4.35,9.85a76,76,0,0,1-4.86,8.56,49.53,49.53,0,0,1-10.91,12.27,41.56,41.56,0,0,1-14.64,7.35,47.58,47.58,0,0,1-8.94,1.58,30.3,30.3,0,0,1-4.15.14l-.71-.06h.08l-.35-.05c-.49-.09-1-.19-1.47-.32s-.87-.27-1.3-.42c-.14-.05-.63-.25-.25-.09-.27-.12-.55-.25-.82-.39a17.67,17.67,0,0,1-2.42-1.49c-.23-.17,0,0,.05,0l-.27-.22-.53-.44c-.39-.34-.76-.69-1.12-1.05s-.71-.75-1-1.13c-.16-.19-.32-.37-.47-.56s-.51-.64-.3-.35a38,38,0,0,1-5.79-11.44,62.14,62.14,0,0,1-1.77-6.59,56.13,56.13,0,0,1-1-6.05,50.58,50.58,0,0,1-.31-5.77c0-.89,0-1.77.09-2.66,0-.37.06-.75.1-1.12,0-.18,0-.36.07-.53-.07.5,0,.17,0-.1A47.44,47.44,0,0,1,818,185a55.15,55.15,0,0,1,11.29-13.88c3.79-3.3,8.1-5.93,13-6.8a8.84,8.84,0,0,1,1.19-.12,13.94,13.94,0,0,1,1.71,0,7.27,7.27,0,0,1,1.13.11,15.22,15.22,0,0,1,1.77.43,8.94,8.94,0,0,1,2.39,1.1c.15.09.81.57.51.33s.35.32.5.47.62.71.36.38.21.33.3.48.23.46.35.68c-.37-.66,0,0,.1.36s.13.5.19.76,0,.26.07.4c-.09-.41,0-.45,0-.06a13.37,13.37,0,0,1,0,1.79c0,.18,0,.35-.05.53,0,.51,0-.22,0-.05-.07.34-.11.68-.19,1a21,21,0,0,1-.54,2.07c-.24.77-.52,1.52-.81,2.27,0,.08-.25.62-.13.33s-.11.25-.15.34c-.18.4-.36.8-.55,1.2-3.62,7.58-8.84,14.37-14,20.64-5.82,7.09-12.05,13.84-18.46,20.41q-6.59,6.75-13.44,13.24c-2.34,2.22,1.2,5.75,3.53,3.54Z"></path><path class="cls-1" d="M1047.47,171.37c-8.17,0-16.61,3.17-23.5,7.37a51.51,51.51,0,0,0-13.51,11.93,62,62,0,0,0-10.4,20.29,59.83,59.83,0,0,0-2.64,12.68,49.8,49.8,0,0,0,.84,13c.57,3.2,1.18,6.29,3,9a17.19,17.19,0,0,0,6.13,5.64c5.05,2.72,11,3.05,16.58,2a30.07,30.07,0,0,0,16-8.93c5.8-5.92,9.8-13.18,12.8-20.84,1.47-3.75,2.69-7.58,3.84-11.43a61,61,0,0,0,1.67-6c.05-.24.24-1.65.13-1s0,0,0-.13c0-.35.1-.7.16-1,.73-4.64,1.47-9.29,1.85-14a42.94,42.94,0,0,0,.13-7.08,11.58,11.58,0,0,0-1.53-5.65,4.65,4.65,0,0,0-5.39-1.85,6.82,6.82,0,0,0-3.73,3.34c-2.44,4.14-3.87,9-5.24,13.58a181.41,181.41,0,0,0-4.42,17.8,68.74,68.74,0,0,0-1.62,16c.24,5.83,1.21,11.4,4.9,16.06a28.05,28.05,0,0,0,5,5.44c3.57,2.61,8.85,2.61,13.09,2.68a16,16,0,0,0,5.78-.73A64.76,64.76,0,0,0,1074,247a41.4,41.4,0,0,0,6.33-3.56c1.78-1.25,3.72-2.77,4.45-4.9s-.32-4.21-2.16-5.49a2.5,2.5,0,0,0-2.52,4.32c.37.26-.34-.34,0,0s-.24-.38,0,0-.06-.17,0-.12c.15.49-.06-.63,0-.11,0,0,.16-.63,0-.16s.35-.5,0-.06a3.45,3.45,0,0,0-.25.41c-.14.28.36-.36-.08.1-.26.28-.52.55-.8.8l-.5.44-.31.24c.18-.13.23-.17,0,0-.88.63-1.79,1.21-2.72,1.75a59.2,59.2,0,0,1-6.08,3c-.45.19-.11,0,0,0l-.3.13-.69.28-1.37.52c-.7.26-1.41.51-2.12.7-.23.07-.47.1-.7.17-.44.15.51-.19.36,0s-.84,0-1,0c-1.94,0-3.88,0-5.81-.2a14.4,14.4,0,0,1-5.52-1.16,10.89,10.89,0,0,1-3-2.88c-.57-.67-1.15-1.33-1.71-2l-.34-.41c.4.5,0,0-.09-.14-.27-.37-.53-.75-.77-1.14s-.45-.78-.66-1.19c0-.12-.31-.67-.22-.45s0-.06,0-.1l-.19-.52a21.9,21.9,0,0,1-1-3.64,45,45,0,0,1-.55-9.43c0-.95.12-1.89.22-2.83.15-1.38.18-1.54.39-2.94.85-5.43,2.07-10.8,3.45-16.12a131.13,131.13,0,0,1,4.68-14.89l.29-.72c.23-.58,0,.11.12-.28s.39-.89.6-1.33a19.63,19.63,0,0,1,1.12-2.07c.18-.29.77-.85.19-.31a3.3,3.3,0,0,0,.48-.51c.14-.25-.52.39-.22.18s.23-.08-.07,0a2.47,2.47,0,0,0,.46-.15s.5,0,0,0-.13,0,0,0c.54,0-.54-.11-.18,0s-.21-.11-.16-.08c.4.25-.43-.36-.12-.12s.14.28,0-.08c.12.28.44,1,.23.31.11.37.24.72.33,1.09s.15.74.21,1.11c-.11-.68,0,0,0,.18l.06.79c.07,1.06.07,2.12,0,3.19-.06,2.37-.28,4.73-.56,7.08-.06.53-.12,1.06-.19,1.59,0,.13-.12.86,0,.41-.05.31-.09.62-.13.93-.15,1-.31,2.1-.47,3.14-.23,1.47-.48,2.93-.69,4.39a10.42,10.42,0,0,1-.41,2c-.26.94-.54,1.88-.81,2.82-.53,1.81-1.07,3.62-1.64,5.42-2.2,7-4.87,13.85-9,20a45.47,45.47,0,0,1-7.22,8.38,18,18,0,0,1-3.23,2.51,23,23,0,0,1-3.34,1.73,24.92,24.92,0,0,1-13.54,1.62,18.28,18.28,0,0,1-3.48-1c-.39-.16.29.13-.08,0l-.34-.16c-.25-.12-.51-.25-.76-.39a15.47,15.47,0,0,1-1.55-1c-.31-.21,0,0-.36-.28-.22-.18-.43-.37-.64-.57a13.42,13.42,0,0,1-1.26-1.35c-.17-.22,0,0,0,0-.1-.13-.2-.27-.29-.41s-.28-.42-.42-.64l-.44-.79c-.08-.15-.44-.89-.37-.74a16.29,16.29,0,0,1-1.06-3.88c-.28-1.8-.72-4-.91-5.93a39.66,39.66,0,0,1,.31-10.88c2.29-13.08,8.45-25.65,18.88-34.08a48.66,48.66,0,0,1,6.12-4.11c1-.58,2-1.11,3.07-1.62l1.51-.7.56-.24.66-.26a48.88,48.88,0,0,1,10.71-2.89c-.78.12.25,0,.52,0s.63-.07,1-.09c.55,0,1.11-.06,1.66-.06,3.22,0,3.22-5,0-5Z"></path><path class="cls-1" d="M755.2,94.84c26.62,0,53.22.55,79.83,0,3.8-.09,7.6-.32,11.39-.61s7.34-.77,11-.77c3.22,0,3.23-5,0-5s-6.69.42-10,.69-6.6.49-9.9.61c-6.68.25-13.38.31-20.07.37-13.26.13-26.52,0-39.78-.13-7.48-.07-15-.13-22.46-.13-3.21,0-3.22,5,0,5Z"></path><path class="cls-1" d="M334.52,10.31q15.64,0,31.29,0l61.35.12,81.5.18,90.62.19,90.06.2,78.41.17,57,.11c8.77,0,17.54.1,26.32,0,24.51-.2,49-.77,73.54-1.4,30.27-.77,60.63-1.43,90.84-3.68,4.35-.33,8.7-.69,13-1.26,3.15-.41,3.19-5.41,0-5-10.68,1.41-21.5,1.88-32.25,2.42-15.79.8-31.58,1.36-47.38,1.84q-43.56,1.35-87.14,2c-9.23.13-18.45.14-27.68.12l-49.92-.1-74.4-.16L621.74,5.9,530,5.7l-84.42-.18-67.38-.14q-19.73,0-39.44-.06h-4.27c-3.21,0-3.22,5,0,5Z"></path><path class="cls-1" d="M2.12,95.6q-.37,10.14-.72,20.29Q.82,132.72.26,149.56c-.1,3.16-.26,6.33-.26,9.5s5,3.22,5,0c0-7.77.45-15.55.72-23.31q.56-16.41,1.14-32.82.12-3.68.26-7.33c.11-3.22-4.89-3.21-5,0Z"></path><path class="cls-1" d="M2.5,161.56c11.61.45,23.2.26,34.81.08,10-.16,20.07-.08,30.1-.08H128.9c13.65,0,27,2.45,40.45,4.49a99.26,99.26,0,0,1,33,11.27,107.08,107.08,0,0,1,14.36,9.25A98.14,98.14,0,0,1,228.78,198c7.32,8,13.87,16.7,21.69,24.28,8.44,8.18,17.79,15.88,28.59,20.72a51,51,0,0,0,8.35,3.08c2.52.63,5.14,1,7.7,1.5a119,119,0,0,0,16.52,1.88c3.08.1,6.15.05,9.23-.1s3.22-5.17,0-5a103.81,103.81,0,0,1-17.89-.59c-2.51-.31-5-.73-7.49-1.19a67.54,67.54,0,0,1-8-1.67c-11.24-3.5-21-10.66-29.62-18.51-8.16-7.44-15.07-15.87-22.27-24.2a125.89,125.89,0,0,0-11.4-11.81,102.19,102.19,0,0,0-14-10.26,106.58,106.58,0,0,0-31.85-13.42c-6.22-1.46-12.6-2.26-18.91-3.25-6.84-1.08-13.72-2-20.64-2.54-6.28-.45-12.58-.35-18.87-.35H72.71c-9.33,0-18.66,0-28,0-10.88,0-21.75.43-32.63.26q-4.8-.07-9.59-.26c-3.22-.13-3.21,4.87,0,5Z"></path><path class="cls-1" d="M522.87,252.52h45.61c5.42,0,10.84,0,16.26,0,12.51-.05,23.79-6.3,33-14.28,10.17-8.75,18.4-19.71,25.53-31A221.08,221.08,0,0,0,660,175.42a494,494,0,0,0,19.74-54.57,285.86,285.86,0,0,0,9.37-43.46c.74-5.82,1.35-11.65,1.79-17.5A133.11,133.11,0,0,0,691.38,44c-.13-3-.11-8.06-3.45-9.46-6.18-2.57-10,6.78-12.67,10.63A35.45,35.45,0,0,0,672,51.62q-1.65,3.87-3.18,7.8c-2.35,6-4.57,12-6.74,18.11q-6,16.81-11.7,33.79c-2.45,7.3-4.39,14.82-6.27,22.29-1.14,4.56-2.19,9.15-3.09,13.77s-1.4,9.53-2.32,14.25C635,180.48,633,199.86,634,219.07q.18,3.51.51,7c.17,1.71.17,3.41.41,5.12a23.77,23.77,0,0,0,3.51,9.64c2.15,3.26,5.66,6.79,9.64,7.53A22.82,22.82,0,0,0,660,246.9a35.6,35.6,0,0,0,10.44-6.23,30,30,0,0,0,3.95-4c1.18-1.46,2-3,3.06-4.58a55.85,55.85,0,0,0,6-11.66A92.41,92.41,0,0,0,687,207.94c1.84-8.54,4-17,6.1-25.45a36.56,36.56,0,0,0,.74-4.55c0-.25.06-.49.1-.73-.08.54,0-.29.06-.45.1-.76.21-1.53.29-2.3a20.68,20.68,0,0,0,.15-3.69c-.17-2.74-1.12-5.51-3.66-6.93a9.94,9.94,0,0,0-8.8.08c-5.07,2.4-7.58,8.64-8.47,13.82-1,5.72-.62,11.52,3,16.25a15.1,15.1,0,0,0,8.64,5.78,22.24,22.24,0,0,0,9.67-.31,91,91,0,0,0,8.88-2.57,36.22,36.22,0,0,0,9-4.19c5-3.44,8.75-8.48,13-12.84,2.24-2.31-1.29-5.85-3.53-3.53s-4.5,4.91-6.77,7.35c-.88.95-1.78,1.88-2.74,2.75a19,19,0,0,1-2.77,2.17,32.8,32.8,0,0,1-8.39,3.77c-2.72.85-5.44,1.74-8.22,2.33a15.48,15.48,0,0,1-7.71,0,11.68,11.68,0,0,1-6.31-5.64c-.11-.2-.21-.41-.31-.62s0,.11.06.13a3.53,3.53,0,0,1-.15-.39,14.42,14.42,0,0,1-.45-1.59c-.06-.26-.1-.53-.15-.8-.09-.49,0-.15,0-.05,0-.16,0-.32,0-.48-.06-.63-.1-1.27-.11-1.9a22.73,22.73,0,0,1,1.06-7.48,15.62,15.62,0,0,1,3.22-6c.19-.19.38-.38.58-.56s.66-.52.29-.25c.21-.15.42-.29.65-.43s.75-.4.58-.32a4.77,4.77,0,0,0,.53-.18l.75-.18c.39-.08-.39,0,0,0l.44,0c.32,0,1,0,1.13,0,0,0,.48.09.67.14a3.12,3.12,0,0,1,.43.15s-.33-.16-.1,0,.59.45.25.14c.16.14.54.65.26.23a5.83,5.83,0,0,1,.39.69c-.21-.45,0,.08.06.27s.12.48.17.73c0,0,.06.4,0,.1s0,.27,0,.34a23.54,23.54,0,0,1-.12,3.56c-.06.55-.13,1.1-.2,1.65.06-.48,0,.2-.05.35l-.18,1.3a76.67,76.67,0,0,1-2,9l-3.15,12.62c-1.43,5.72-2.32,11.55-4.1,17.19a47.3,47.3,0,0,1-4.95,11,44,44,0,0,1-6.25,8.46,30.4,30.4,0,0,1-9,6,19.62,19.62,0,0,1-10,1.78c-3.2-.45-6-3.88-7.43-6.53a20.37,20.37,0,0,1-2.32-8.27,250.17,250.17,0,0,1-.79-26.12,238.5,238.5,0,0,1,2.55-27.6c.68-4.53,1.69-9,2.35-13.52s1.34-9.16,2.24-13.71c1.74-8.74,4-17.36,6.43-25.93,3-10.69,6.76-21.17,10.42-31.65,4-11.59,8.13-23.2,12.81-34.56.71-1.71,1.46-3.51,2.42-5.53a34,34,0,0,1,2.11-3.38c.72-1.17,1.41-2.36,2.15-3.52a17.64,17.64,0,0,1,2.42-3.18,5.25,5.25,0,0,1,.66-.59c-.33.25.25-.14.35-.2.3-.18-.22.23,0,0a.74.74,0,0,1,.29-.08c-.7.09.56,0-.15,0,.37,0-.06-.12.1,0-.08-.07-.57-.51-.28-.19.06.06-.45-.59-.18-.23.07.09.09.23.17.31s-.19-.62-.08-.18l.13.37a9.07,9.07,0,0,1,.24,1c.07.35.13.7.18,1-.08-.5,0-.22,0,.08s0,.47.07.71c.09,1,.13,2,.16,3,.06,2.41,0,4.82-.09,7.22-.24,5.69-.72,11.36-1.32,17-.28,2.68-.59,5.37-.93,8-.19,1.48-.24,1.85-.42,3.19l-.45,3.06c-1.11,7.15-2.7,14.24-4.42,21.26a419.09,419.09,0,0,1-16.9,52.62A296.55,296.55,0,0,1,645.34,194a173.57,173.57,0,0,1-21.22,30.91c-7.77,8.8-17.22,17.19-28.36,20.82a35.1,35.1,0,0,1-11.44,1.82H522.87c-3.22,0-3.22,5,0,5Z"></path><path class="cls-1" d="M16.17,98.1c11.6-.46,23.2-.26,34.81-.08,10,.16,20.06.08,30.1.08q30.74,0,61.48,0c13.76,0,27.11-2.61,40.67-4.51a102.88,102.88,0,0,0,33.47-11,104.15,104.15,0,0,0,27.22-20.23c7.46-7.84,13.86-16.61,21.51-24.27,8.26-8.28,17.3-16.07,27.87-21.24a55.33,55.33,0,0,1,8.14-3.22,71.69,71.69,0,0,1,7.71-1.59,111,111,0,0,1,16.15-1.88c3.08-.1,6.15-.05,9.22.1,3.22.17,3.21-4.83,0-5a103.84,103.84,0,0,0-17.89.59,122.22,122.22,0,0,0-15.78,2.74c-11.41,3-21.65,10.31-30.41,17.94-8.4,7.31-15.57,15.62-22.75,24.09a154.85,154.85,0,0,1-11.07,12,91.26,91.26,0,0,1-13.57,10.48,103.17,103.17,0,0,1-31.32,13.75c-6.15,1.52-12.47,2.31-18.72,3.31-6.82,1.09-13.67,2.06-20.56,2.56-6.28.45-12.58.35-18.88.35H86.37c-9.33,0-18.66,0-28,0-10.88,0-21.75-.43-32.63-.26-3.19,0-6.39.13-9.58.26s-3.23,5.13,0,5Z"></path></g></g></svg> 